<?xml version="1.0" standalone="no"?>
<!DOCTYPE svg PUBLIC "-//W3C//DTD SVG 20010904//EN"
 "http://www.w3.org/TR/2001/REC-SVG-20010904/DTD/svg10.dtd">
<svg version="1.0" xmlns="http://www.w3.org/2000/svg"
 width="500.000000pt" height="500.000000pt" viewBox="0 0 500.000000 500.000000"
 preserveAspectRatio="xMidYMid meet">

<g transform="translate(0.000000,500.000000) scale(0.100000,-0.100000)"
fill="#ff7f00" stroke="none">
<path d="M870 3461 c0 -4 26 -11 58 -14 72 -6 117 -28 142 -70 19 -31 20 -54
20 -544 l0 -513 140 0 140 0 0 155 0 155 375 0 375 0 0 -155 0 -155 140 0 139
0 3 518 c3 480 4 519 21 544 24 36 77 59 148 65 33 3 59 10 59 14 0 5 -166 9
-370 9 -203 0 -370 -4 -370 -9 0 -4 30 -11 66 -14 82 -8 127 -34 148 -87 14
-34 16 -91 16 -370 l0 -330 -376 0 -376 0 4 338 c3 318 4 339 23 372 29 48 74
71 150 78 36 2 65 9 65 13 0 5 -166 9 -370 9 -203 0 -370 -4 -370 -9z"/>
<path d="M2440 3060 c0 -5 17 -10 38 -10 49 0 99 -26 133 -70 15 -19 96 -165
179 -325 84 -159 159 -300 166 -312 14 -22 20 -23 154 -23 77 0 140 2 140 5 0
3 -67 138 -150 300 -128 250 -150 301 -150 339 0 60 26 77 126 84 41 2 74 9
74 13 0 5 -160 9 -355 9 -230 0 -355 -4 -355 -10z"/>
<path d="M3490 3060 c0 -6 30 -10 70 -10 153 0 217 -34 207 -110 -5 -40 -141
-335 -239 -518 -27 -52 -47 -96 -44 -100 4 -3 10 -1 15 4 5 5 79 146 165 314
86 168 170 323 188 344 37 45 81 66 138 66 22 0 40 5 40 10 0 6 -97 10 -270
10 -173 0 -270 -4 -270 -10z"/>
<path d="M1059 1814 c-22 -27 -66 -44 -129 -51 -144 -15 -34 -23 310 -23 204
0 370 4 370 9 0 4 -29 11 -65 14 -66 6 -111 24 -134 51 -20 24 -332 24 -352 0z"/>
<path d="M2072 1805 c-25 -25 -90 -45 -146 -45 -20 0 -36 -4 -36 -10 0 -6 130
-10 370 -10 240 0 370 4 370 10 0 6 -13 10 -30 10 -58 0 -128 21 -151 46 -22
24 -25 24 -188 23 -159 -1 -167 -2 -189 -24z"/>
<path d="M3100 1678 c0 -84 -5 -173 -11 -198 -18 -79 -62 -109 -175 -117 -41
-3 -74 -10 -74 -14 0 -5 178 -9 395 -9 217 0 395 4 395 9 0 4 -31 11 -69 13
-87 6 -141 32 -163 78 -15 29 -18 64 -18 213 l0 177 -140 0 -140 0 0 -152z"/>
</g>
</svg>
